<svg width="16" height="16" viewBox="0 0 16 16" fill="none" xmlns="http://www.w3.org/2000/svg">
<path d="M9 9H11V9.74L10.5 10.24L9.65997 9.39C9.4717 9.21255 9.24626 9.07932 9 9ZM5.66998 11L7.23999 9.43C7.41439 9.25465 7.62641 9.12128 7.85999 9.04H2V14.04H6.53998L5.70001 13.2C5.55488 13.0559 5.43969 12.8846 5.36108 12.6958C5.28248 12.507 5.242 12.3045 5.242 12.1C5.242 11.8955 5.28248 11.693 5.36108 11.5042C5.43969 11.3154 5.55488 11.1441 5.70001 11H5.66998Z" fill="white"/>
<path opacity="0.5" d="M7.89026 9C8.25907 8.8696 8.66146 8.8696 9.03027 9H11.0303V9.74L13.0303 7.74V3L11.0303 1H10.0303V6H2.03027V1H0.0302734V14H2.03027V9H7.89026Z" fill="white"/>
<path d="M2 1V6H10V1H2ZM9 5H8V2H9V5Z" fill="white"/>
<path d="M10.5801 15.8499L7.71014 12.9999C7.60553 12.8967 7.52245 12.7737 7.46576 12.638C7.40907 12.5024 7.37988 12.3569 7.37988 12.2099C7.37988 12.0629 7.40907 11.9174 7.46576 11.7818C7.52245 11.6462 7.60553 11.5232 7.71014 11.4199C7.91959 11.2141 8.20147 11.0988 8.49512 11.0988C8.78877 11.0988 9.0707 11.2141 9.28015 11.4199L10.5701 12.7099L14.0601 9.22992C14.1634 9.12531 14.2864 9.04224 14.422 8.98555C14.5576 8.92886 14.7031 8.89966 14.8501 8.89966C14.9971 8.89966 15.1426 8.92886 15.2783 8.98555C15.4139 9.04224 15.5369 9.12531 15.6401 9.22992C15.7448 9.33317 15.8278 9.45617 15.8845 9.59179C15.9412 9.7274 15.9704 9.87292 15.9704 10.0199C15.9704 10.1669 15.9412 10.3124 15.8845 10.448C15.8278 10.5837 15.7448 10.7067 15.6401 10.8099L10.5801 15.8499Z" fill="white"/>
</svg>
