<svg width="20" height="20" viewBox="0 0 20 20" fill="none" xmlns="http://www.w3.org/2000/svg">
<path fill-rule="evenodd" clip-rule="evenodd" d="M13.2399 4.82C13.284 7.24729 12.3883 9.59769 10.7399 11.38C9.11173 13.1795 6.85069 14.2795 4.42993 14.45C9.15993 13.11 10.4799 9.33 10.4799 4.82H7.75995L11.8199 0L15.8799 4.82H13.2399Z" fill="white"/>
<path opacity="0.5" d="M17.5 6.82007H15.91L15.01 8.82007H17.5C17.6326 8.82007 17.7598 8.87275 17.8536 8.96651C17.9473 9.06028 18 9.18746 18 9.32007V16.3201C18 16.4527 17.9473 16.5799 17.8536 16.6736C17.7598 16.7674 17.6326 16.8201 17.5 16.8201H2.5C2.36739 16.8201 2.24019 16.7674 2.14642 16.6736C2.05266 16.5799 2 16.4527 2 16.3201V9.32007C2 9.18746 2.05266 9.06028 2.14642 8.96651C2.24019 8.87275 2.36739 8.82007 2.5 8.82007H6.5L7.5 6.82007H2.5C1.83696 6.82007 1.20108 7.08346 0.732239 7.5523C0.263398 8.02114 0 8.65703 0 9.32007V16.3201C0 16.9831 0.263398 17.619 0.732239 18.0878C1.20108 18.5567 1.83696 18.8201 2.5 18.8201H17.5C18.163 18.8201 18.7989 18.5567 19.2678 18.0878C19.7366 17.619 20 16.9831 20 16.3201V9.32007C20 8.65703 19.7366 8.02114 19.2678 7.5523C18.7989 7.08346 18.163 6.82007 17.5 6.82007V6.82007Z" fill="white"/>
</svg>
