<svg width="16" height="16" viewBox="0 0 16 16" fill="none" xmlns="http://www.w3.org/2000/svg">
<path fill-rule="evenodd" clip-rule="evenodd" d="M10.5901 3.86C10.6267 5.80266 9.90996 7.6841 8.59009 9.11C7.2886 10.5512 5.47758 11.4298 3.54004 11.56C7.33004 10.49 8.38007 7.47 8.38007 3.86H6.21008L9.46008 0L12.7001 3.86H10.5901Z" fill="white"/>
<path opacity="0.5" d="M14 5.86011H12.73L11.86 7.86011H14V13.8601H2V7.86011H5L6 5.86011H2C1.46957 5.86011 0.960888 6.07082 0.585815 6.44589C0.210743 6.82097 0 7.32967 0 7.86011V13.8601C0 14.3905 0.210743 14.8992 0.585815 15.2743C0.960888 15.6494 1.46957 15.8601 2 15.8601H14C14.5304 15.8601 15.0391 15.6494 15.4142 15.2743C15.7893 14.8992 16 14.3905 16 13.8601V7.86011C16 7.32967 15.7893 6.82097 15.4142 6.44589C15.0391 6.07082 14.5304 5.86011 14 5.86011Z" fill="white"/>
</svg>
