<svg width="16" height="16" viewBox="0 0 16 16" fill="none" xmlns="http://www.w3.org/2000/svg">
<path d="M14.71 4L11.71 9.14001H16L10.4302 16L12.5698 10.86H8.29004L14.71 4Z" fill="white"/>
<path d="M4 7C3.73478 7 3.48051 7.10537 3.29297 7.29291C3.10543 7.48044 3 7.73478 3 8C3 8.26522 3.10543 8.51956 3.29297 8.70709C3.48051 8.89463 3.73478 9 4 9H7.81006L9.68994 7H4Z" fill="white"/>
<path d="M1 4H12.5L14.1401 2.25L14.2998 2.06C14.2035 2.02473 14.1025 2.00449 14 2H1C0.734784 2 0.480505 2.10537 0.292969 2.29291C0.105432 2.48044 0 2.73478 0 3C0 3.26522 0.105432 3.51956 0.292969 3.70709C0.480505 3.89463 0.734784 4 1 4Z" fill="white"/>
<path d="M9 12H6C5.73478 12 5.48051 12.1054 5.29297 12.2929C5.10543 12.4804 5 12.7348 5 13C5 13.2652 5.10543 13.5196 5.29297 13.7071C5.48051 13.8946 5.73478 14 6 14H9C9.26522 14 9.5195 13.8946 9.70703 13.7071C9.89457 13.5196 10 13.2652 10 13C10 12.7348 9.89457 12.4804 9.70703 12.2929C9.5195 12.1054 9.26522 12 9 12Z" fill="white"/>
</svg>
