<?xml version="1.0" encoding="utf-8"?>
<svg width="16" height="16" viewBox="0 0 16 16" fill="none" xmlns="http://www.w3.org/2000/svg">
  <path d="M8.80009 3L7.6001 1.4C7.4001 1.2 7.10009 1 6.90009 1H2.1001C1.5001 1 1.1001 1.4 1.1001 2V3H8.80009Z" fill="white"/>
  <path d="M 14 4 L 1 4 L 1 13 C 1 13.6 1.4 14 2 14 L 14 14 C 14.6 14 15 13.6 15 13 L 15 5 C 15 4.4 14.6 4 14 4 Z M 9.95 11.798 L 8.068 9.987 L 6.231 11.842 L 5.307 10.924 L 7.131 9.042 L 5.263 7.204 L 6.194 6.267 L 8.076 8.092 L 9.888 6.236 L 10.851 7.155 L 9.013 9.063 L 10.842 10.888 L 9.95 11.798 Z" fill="white"/>
</svg>