<svg width="20" height="20" viewBox="0 0 20 20" fill="none" xmlns="http://www.w3.org/2000/svg">
<path fill-rule="evenodd" clip-rule="evenodd" d="M12.1 11C12.1783 8.48918 11.2824 6.04538 9.59998 4.18C7.89329 2.30173 5.52271 1.16126 2.98999 1C7.90999 2.37 9.23999 6.31 9.23999 11H6.40997L10.64 16L14.85 11H12.1Z" fill="white"/>
<path opacity="0.5" d="M17.5 6.75H15V8.75H17.5C17.6326 8.75 17.7598 8.80268 17.8536 8.89645C17.9473 8.99021 18 9.11739 18 9.25V16.25C18 16.3826 17.9473 16.5098 17.8536 16.6036C17.7598 16.6973 17.6326 16.75 17.5 16.75H2.5C2.36739 16.75 2.24019 16.6973 2.14642 16.6036C2.05266 16.5098 2 16.3826 2 16.25V9.25C2 9.11739 2.05266 8.99021 2.14642 8.89645C2.24019 8.80268 2.36739 8.75 2.5 8.75H6.25V6.75H2.5C1.83696 6.75 1.20108 7.01339 0.732239 7.48223C0.263398 7.95107 0 8.58696 0 9.25V16.25C0 16.913 0.263398 17.5489 0.732239 18.0178C1.20108 18.4866 1.83696 18.75 2.5 18.75H17.5C18.163 18.75 18.7989 18.4866 19.2678 18.0178C19.7366 17.5489 20 16.913 20 16.25V9.25C20 8.58696 19.7366 7.95107 19.2678 7.48223C18.7989 7.01339 18.163 6.75 17.5 6.75V6.75Z" fill="white"/>
</svg>
