<svg width="16" height="16" viewBox="0 0 16 16" fill="none" xmlns="http://www.w3.org/2000/svg">
<path fill-rule="evenodd" clip-rule="evenodd" d="M9.67999 9C9.74408 6.98991 9.0273 5.03309 7.67999 3.53999C6.31259 2.03959 4.41594 1.12891 2.39001 1C6.33001 2.1 7.39001 5.25 7.39001 9H5.13L8.51001 13L11.88 9H9.67999Z" fill="white"/>
<path opacity="0.5" d="M14 6H12V8H14V14H2V8H5V6H2C1.46957 6 0.960888 6.21071 0.585815 6.58578C0.210743 6.96086 0 7.46957 0 8V14C0 14.5304 0.210743 15.0391 0.585815 15.4142C0.960888 15.7893 1.46957 16 2 16H14C14.5304 16 15.0391 15.7893 15.4142 15.4142C15.7893 15.0391 16 14.5304 16 14V8C16 7.46957 15.7893 6.96086 15.4142 6.58578C15.0391 6.21071 14.5304 6 14 6Z" fill="white"/>
</svg>
