<svg width="16" height="16" viewBox="0 0 16 16" fill="none" xmlns="http://www.w3.org/2000/svg">
<path d="M7 1C3.4 1 1 4.60002 1 4.60002C1 4.60002 3.4 8.20005 7 8.20005C10.6 8.20005 13 4.60002 13 4.60002C13 4.60002 10.6 1 7 1Z" stroke="white" stroke-miterlimit="10"/>
<path d="M6.99967 6.60317C6.46842 6.60317 5.95893 6.39215 5.58328 6.0165C5.20763 5.64085 4.99658 5.13136 4.99658 4.60011C4.99658 4.06886 5.20763 3.55937 5.58328 3.18372C5.95893 2.80807 6.46842 2.59705 6.99967 2.59705C7.53092 2.59705 8.04041 2.80807 8.41606 3.18372C8.79171 3.55937 9.00276 4.06886 9.00276 4.60011C9.00276 5.13136 8.79171 5.64085 8.41606 6.0165C8.04041 6.39215 7.53092 6.60317 6.99967 6.60317Z" fill="white"/>
<path d="M13.5 11.4816L14.9816 8.8897L15.5 14.5001L9.88972 13.9816L12.4816 12.5L9.48145 9.49995L10.4998 8.48157L13.5 11.4816Z" fill="white"/>
</svg>
