<svg width="20" height="20" viewBox="0 0 20 20" fill="none" xmlns="http://www.w3.org/2000/svg">
<path d="M16 2H12V5H8V2H4C3.73478 2 3.48043 2.10543 3.29289 2.29297C3.10536 2.48051 3 2.73478 3 3V18C3 18.2652 3.10536 18.5195 3.29289 18.707C3.48043 18.8946 3.73478 19 4 19H16C16.2652 19 16.5196 18.8946 16.7071 18.707C16.8946 18.5195 17 18.2652 17 18V3C17 2.73478 16.8946 2.48051 16.7071 2.29297C16.5196 2.10543 16.2652 2 16 2ZM10 7.12988C10.536 7.12988 11.0599 7.28914 11.5056 7.58691C11.9513 7.88469 12.2986 8.30755 12.5037 8.80273C12.7088 9.29792 12.7625 9.84296 12.6579 10.3687C12.5534 10.8943 12.2953 11.3773 11.9163 11.7563C11.5373 12.1353 11.0544 12.3935 10.5287 12.498C10.003 12.6026 9.45812 12.5489 8.96293 12.3438C8.46774 12.1386 8.0445 11.7914 7.74672 11.3457C7.44894 10.9 7.29 10.3758 7.29 9.83984C7.29 9.12111 7.57552 8.43205 8.08374 7.92383C8.59196 7.4156 9.28126 7.12988 10 7.12988V7.12988ZM5 18C5.0824 16.7512 5.65328 15.5854 6.58907 14.7544C7.52485 13.9234 8.75025 13.4942 10 13.5601C11.2498 13.4942 12.4751 13.9234 13.4109 14.7544C14.3467 15.5854 14.9176 16.7512 15 18H5Z" fill="white"/>
<path opacity="0.5" d="M11 0H9V4H11V0Z" fill="white"/>
</svg>
