<svg width="16" height="17" viewBox="0 0 16 17" fill="none" xmlns="http://www.w3.org/2000/svg">
<path fill-rule="evenodd" clip-rule="evenodd" d="M12.2714 8.00127H2.47137C1.84137 8.00127 1.19141 7.81127 1.19141 7.06127C1.19141 6.59127 1.81141 5.81127 3.19141 6.06127C1.33141 3.00127 5.42142 1.17127 7.33142 4.50127C6.24142 2.12127 7.60141 0.00127141 9.76141 0.00127141C10.2267 -0.0134837 10.6871 0.10043 11.0918 0.33048C11.4965 0.56053 11.8299 0.897796 12.0553 1.30514C12.2807 1.71249 12.3893 2.17413 12.3692 2.63923C12.3491 3.10434 12.2011 3.55489 11.9414 3.94127C12.2553 3.85315 12.5851 3.83756 12.9059 3.8957C13.2268 3.95384 13.5301 4.08419 13.7932 4.27687C14.0562 4.46955 14.2719 4.71952 14.4241 5.00787C14.5762 5.29622 14.6608 5.61541 14.6714 5.94127C14.6714 7.34127 13.7014 8.00127 12.2714 8.00127Z" fill="white"/>
<path d="M8.5 13.0005L5 10.0005L1.5 13.0005" stroke="white" stroke-width="1.5" stroke-miterlimit="10" stroke-linecap="round"/>
<path d="M5 15.4172L5 10.1672" stroke="white" stroke-width="1.5" stroke-miterlimit="10" stroke-linecap="round"/>
<circle cx="13" cy="13.0005" r="3" fill="#FFB800"/>
</svg>
