<svg width="17" height="17" viewBox="0 0 17 17" fill="none" xmlns="http://www.w3.org/2000/svg">
<path fill-rule="evenodd" clip-rule="evenodd" d="M12.371 8.00127H2.57098C1.94098 8.00127 1.29102 7.81127 1.29102 7.06127C1.29102 6.59127 1.91102 5.81127 3.29102 6.06127C1.43102 3.00127 5.52103 1.17127 7.43103 4.50127C6.34103 2.12127 7.70102 0.00127141 9.86102 0.00127141C10.3263 -0.0134837 10.7867 0.10043 11.1914 0.33048C11.5961 0.56053 11.9295 0.897796 12.1549 1.30514C12.3803 1.71249 12.4889 2.17413 12.4688 2.63923C12.4487 3.10434 12.3007 3.55489 12.041 3.94127C12.3549 3.85315 12.6847 3.83756 13.0056 3.8957C13.3264 3.95384 13.6298 4.08419 13.8928 4.27687C14.1558 4.46955 14.3715 4.71952 14.5237 5.00787C14.6758 5.29622 14.7604 5.61541 14.771 5.94127C14.771 7.34127 13.801 8.00127 12.371 8.00127Z" fill="white"/>
<path d="M11.5996 13.0005L8.09961 10.0005L4.59961 13.0005" stroke="white" stroke-width="1.5" stroke-miterlimit="10" stroke-linecap="round"/>
<path d="M8.09961 15.4172L8.09961 10.1672" stroke="white" stroke-width="1.5" stroke-miterlimit="10" stroke-linecap="round"/>
</svg>
