<svg width="16" height="16" viewBox="0 0 16 16" fill="none" xmlns="http://www.w3.org/2000/svg">
<path d="M7 9H2V14H7V9Z" fill="white"/>
<path d="M2 1V6H10V1H2ZM9 5H8V2H9V5Z" fill="white"/>
<path d="M15.3999 9.92999L16 11.6L13.3999 12.47L15 14.6L13.6001 15.73L12 13.47L10.3999 15.73L8.93018 14.67L10.5298 12.53L8 11.67L8.6001 10L11.0698 11V8.27002H12.7998V11L15.3999 9.92999Z" fill="white"/>
<path opacity="0.5" d="M2 9V14H0V1H2V6H10V1H11L13 3V7H10V9.35999L8 8.35999L7 11V9H2ZM7 14H8.20996L8.95996 13L6.95996 12.53L7 14Z" fill="white"/>
</svg>
