<svg width="16" height="16" viewBox="0 0 16 16" fill="none" xmlns="http://www.w3.org/2000/svg">
<g clip-path="url(#clip0_11899_10591)">
<path d="M2 6H8.89001L9.48999 4.92004C9.61908 4.69985 9.79281 4.50904 10 4.35999V1H2V6ZM8 2H9V5H8V2Z" fill="white"/>
<path d="M5 13L7.22 9H2V13H5Z" fill="white"/>
<path opacity="0.5" d="M2 13H0V1H2V6H8.89001L7.21997 9H2V13ZM10 1V4.35999C10.2889 4.14095 10.6378 4.01536 11 4C11.2923 4.00162 11.5798 4.07439 11.8376 4.21204C12.0955 4.34968 12.316 4.54809 12.48 4.79004L12.95 5.5V3L10.95 1H10Z" fill="white"/>
<path d="M15.7901 14.84L11.6902 6.41004C11.6234 6.28494 11.5229 6.18097 11.4002 6.10999C11.2816 6.03135 11.1424 5.9896 11.0002 5.98999C10.8579 5.9896 10.7187 6.03135 10.6001 6.10999C10.4774 6.18097 10.3769 6.28494 10.3101 6.41004L6.21017 14.84C6.14992 14.9611 6.11906 15.0947 6.12015 15.23C6.12114 15.3644 6.15919 15.4959 6.23013 15.61C6.29669 15.7267 6.39343 15.8235 6.51016 15.89C6.62801 15.9608 6.76268 15.9988 6.90017 16H15.1001C15.2376 15.9988 15.3723 15.9608 15.4901 15.89C15.6069 15.8235 15.7036 15.7267 15.7702 15.61C15.8411 15.4959 15.8792 15.3644 15.8802 15.23C15.886 15.0942 15.8549 14.9594 15.7901 14.84ZM11.0002 15C10.8685 15.0008 10.7381 14.9755 10.6162 14.9258C10.4944 14.876 10.3836 14.8026 10.2901 14.71C10.1955 14.6158 10.1207 14.5036 10.0702 14.38C10.0189 14.2598 9.99172 14.1307 9.99014 14C9.99172 13.8693 10.0189 13.7402 10.0702 13.62C10.1207 13.4964 10.1955 13.3843 10.2901 13.29C10.3836 13.1974 10.4944 13.124 10.6162 13.0742C10.7381 13.0245 10.8685 12.9992 11.0002 13C11.1318 12.9992 11.2622 13.0245 11.3841 13.0742C11.5059 13.124 11.6167 13.1974 11.7102 13.29C11.8029 13.3835 11.8762 13.4943 11.9259 13.6161C11.9757 13.7379 12.0009 13.8684 12.0002 14C12.0009 14.1316 11.9757 14.2621 11.9259 14.3839C11.8762 14.5058 11.8029 14.6165 11.7102 14.71C11.6167 14.8026 11.5059 14.876 11.3841 14.9258C11.2622 14.9755 11.1318 15.0008 11.0002 15ZM11.3302 12.33H10.6701C10.6043 12.3446 10.536 12.3446 10.4701 12.33C10.4092 12.3011 10.3574 12.2561 10.3202 12.2C10.2229 12.0816 10.1699 11.9332 10.1701 11.78V8.97998C10.1699 8.82682 10.2229 8.67842 10.3202 8.56006C10.3574 8.50387 10.4092 8.45892 10.4701 8.43006C10.5321 8.39847 10.6005 8.38133 10.6701 8.38001H11.3302C11.3998 8.38133 11.4682 8.39847 11.5302 8.43006C11.5911 8.45892 11.6429 8.50387 11.6801 8.56006C11.7774 8.67842 11.8304 8.82682 11.8302 8.97998V11.78C11.8304 11.9332 11.7774 12.0816 11.6801 12.2C11.6429 12.2561 11.5911 12.3011 11.5302 12.33C11.4643 12.3446 11.396 12.3446 11.3302 12.33Z" fill="white"/>
</g>
<defs>
<clipPath id="clip0_11899_10591">
<rect width="16" height="16" fill="white"/>
</clipPath>
</defs>
</svg>
